<?xml version="1.0" encoding="UTF-8"?>
<svg xmlns="http://www.w3.org/2000/svg" viewBox="0 0 32 32" width="32" height="32">
  <polygon points="16,1.5 28.6,8.75 28.6,23.25 16,30.5 3.4,23.25 3.4,8.75" fill="#2d5a3d"/>
  <path d="M16,6 C19.2,9 22,12.8 22,16.8 C22,20.5 19.5,23.2 16,24.5 C12.5,23.2 10,20.5 10,16.8 C10,12.8 12.8,9 16,6 Z" fill="#8cc472"/>
  <path d="M16,6 L16,24.5" stroke="#2d5a3d" stroke-width="1" fill="none" stroke-linecap="round"/>
  <path d="M16,10.5 L12.5,13.5 M16,10.5 L19.5,13.5 M16,15 L12.5,18 M16,15 L19.5,18 M16,19.5 L13.5,21.5 M16,19.5 L18.5,21.5" stroke="#2d5a3d" stroke-width="0.7" fill="none" stroke-linecap="round"/>
</svg>
